<?xml version="1.0" encoding="UTF-8"?>
<svg id="Layer_1" data-name="Layer 1" xmlns="http://www.w3.org/2000/svg" viewBox="0 0 315.12 360.42">
  <defs>
    <style>
      .cls-1 {
        letter-spacing: .16em;
      }

      .cls-2 {
        font-size: 14.21px;
      }

      .cls-2, .cls-3, .cls-4, .cls-5, .cls-6 {
        font-weight: 700;
      }

      .cls-2, .cls-7, .cls-8, .cls-5, .cls-9 {
        fill: #822a90;
      }

      .cls-2, .cls-4 {
        font-family: CinzelDecorative-Bold, 'Cinzel Decorative';
      }

      .cls-10, .cls-3, .cls-11, .cls-12, .cls-4, .cls-6, .cls-13, .cls-14 {
        fill: #fff;
      }

      .cls-15 {
        letter-spacing: .16em;
      }

      .cls-3 {
        font-size: 7.53px;
      }

      .cls-3, .cls-5 {
        font-family: EBGaramondRoman-ExtraBold, 'EB Garamond';
        font-variation-settings: 'wght' 800;
      }

      .cls-7 {
        stroke: #92278f;
      }

      .cls-7, .cls-16, .cls-12, .cls-13, .cls-9, .cls-14 {
        stroke-miterlimit: 10;
      }

      .cls-16 {
        fill: none;
      }

      .cls-16, .cls-12, .cls-14 {
        stroke: #822a90;
      }

      .cls-17 {
        letter-spacing: -.04em;
      }

      .cls-18 {
        letter-spacing: .11em;
      }

      .cls-19 {
        letter-spacing: -.02em;
      }

      .cls-20 {
        letter-spacing: .19em;
      }

      .cls-21 {
        letter-spacing: 0em;
      }

      .cls-11 {
        font-family: EBGaramondRoman-Medium, 'EB Garamond';
        font-size: 18px;
        font-variation-settings: 'wght' 500;
        font-weight: 500;
      }

      .cls-22 {
        letter-spacing: 0em;
      }

      .cls-23 {
        letter-spacing: 0em;
      }

      .cls-12 {
        stroke-width: 5px;
      }

      .cls-24 {
        letter-spacing: .02em;
      }

      .cls-25 {
        letter-spacing: .11em;
      }

      .cls-26 {
        fill: #812990;
      }

      .cls-27 {
        letter-spacing: .12em;
      }

      .cls-28 {
        letter-spacing: .07em;
      }

      .cls-29 {
        letter-spacing: .11em;
      }

      .cls-4 {
        font-size: 48px;
      }

      .cls-5 {
        font-size: 8.15px;
      }

      .cls-30 {
        letter-spacing: .15em;
      }

      .cls-31 {
        letter-spacing: .11em;
      }

      .cls-32 {
        letter-spacing: .11em;
      }

      .cls-33 {
        letter-spacing: -.04em;
      }

      .cls-6 {
        font-family: EBGaramondRoman-Bold, 'EB Garamond';
        font-size: 15.51px;
        font-variation-settings: 'wght' 700;
      }

      .cls-34 {
        letter-spacing: -.02em;
      }

      .cls-13, .cls-9 {
        stroke: #fff;
      }

      .cls-9 {
        stroke-width: .5px;
      }

      .cls-35 {
        letter-spacing: .11em;
      }

      .cls-36 {
        letter-spacing: 0em;
      }

      .cls-37 {
        letter-spacing: 0em;
      }
    </style>
  </defs>
  <text/>
  <text class="cls-4" transform="translate(30.23 305.42) rotate(-.08) scale(1.19 1) skewX(-.13)"><tspan class="cls-19" x="0" y="0">M</tspan><tspan class="cls-33" x="45.46" y="0">Y</tspan><tspan class="cls-37" x="75.55" y="0">S</tspan><tspan class="cls-22" x="105.7" y="0">O</tspan><tspan class="cls-36" x="150" y="0">RE</tspan></text>
  <text class="cls-11" transform="translate(5 336.35) rotate(-.08) scale(1.14 1) skewX(-.13)"><tspan class="cls-18" x="0" y="0">INTER</tspan><tspan class="cls-35" x="66.2" y="0">N</tspan><tspan class="cls-24" x="82.49" y="0">A</tspan><tspan class="cls-32" x="95.42" y="0">TIO</tspan><tspan class="cls-31" x="133.61" y="0">NA</tspan><tspan class="cls-25" x="164.47" y="0">L SCH</tspan><tspan class="cls-27" x="224.67" y="0">O</tspan><tspan class="cls-29" x="240.51" y="0">OL</tspan></text>
  <g>
    <circle class="cls-26" cx="158" cy="126.72" r="122"/>
    <text class="cls-6" transform="translate(57.81 157.84) rotate(-105.7)"><tspan x="0" y="0"> </tspan></text>
    <text class="cls-6" transform="translate(55.7 149.61) rotate(-101.01)"><tspan x="0" y="0"> </tspan></text>
    <text class="cls-6" transform="translate(54.27 141.23) rotate(-96.34)"><tspan x="0" y="0"> </tspan></text>
    <text class="cls-6" transform="translate(53.45 132.84) rotate(-90.35)"><tspan x="0" y="0">E</tspan></text>
    <text class="cls-6" transform="translate(53.52 119.24) rotate(-81.54)"><tspan x="0" y="0">M</tspan></text>
    <text class="cls-6" transform="translate(56.84 100.69) rotate(-72.48)"><tspan x="0" y="0">P</tspan></text>
    <text class="cls-6" transform="translate(61.33 87.33) rotate(-64.05)"><tspan x="0" y="0">O</tspan></text>
    <text class="cls-6" transform="translate(68.37 73.23) rotate(-54.32)"><tspan x="0" y="0">W</tspan></text>
    <text class="cls-6" transform="translate(80.82 57.01) rotate(-45.06)"><tspan x="0" y="0">E</tspan></text>
    <text class="cls-6" transform="translate(90.58 47.55) rotate(-36.88)"><tspan x="0" y="0">R</tspan></text>
    <text class="cls-6" transform="translate(104.11 38.05) rotate(-30.05)"><tspan x="0" y="0"> </tspan></text>
    <text class="cls-6" transform="translate(111.57 33.97) rotate(-25.38)"><tspan x="0" y="0"> </tspan></text>
    <text class="cls-6" transform="translate(119.33 30.5) rotate(-20.69)"><tspan x="0" y="0"> </tspan></text>
    <text class="cls-6" transform="translate(127.27 27.63) rotate(-14.58)"><tspan x="0" y="0">E</tspan></text>
    <text class="cls-6" transform="translate(140.49 24.43) rotate(-6.36)"><tspan x="0" y="0">X</tspan></text>
    <text class="cls-6" transform="translate(156.08 23.01) rotate(1.93)"><tspan x="0" y="0">C</tspan></text>
    <text class="cls-6" transform="translate(171.71 23.93) rotate(9.9)"><tspan x="0" y="0">E</tspan></text>
    <text class="cls-6" transform="translate(185.09 26.58) rotate(17.47)"><tspan x="0" y="0">L</tspan></text>
    <text class="cls-6" transform="translate(198.17 31.12) rotate(23.62)"><tspan x="0" y="0"> </tspan></text>
    <text class="cls-6" transform="translate(205.88 34.7) rotate(28.3)"><tspan x="0" y="0"> </tspan></text>
    <text class="cls-6" transform="translate(213.25 38.89) rotate(32.94)"><tspan x="0" y="0"> </tspan></text>
    <text class="cls-6" transform="translate(220.29 43.59) rotate(39)"><tspan x="0" y="0">E</tspan></text>
    <text class="cls-6" transform="translate(230.71 52.31) rotate(47.2)"><tspan x="0" y="0">D</tspan></text>
    <text class="cls-6" transform="translate(241.67 64.7) rotate(56.13)"><tspan x="0" y="0">U</tspan></text>
    <text class="cls-6" transform="translate(250.39 78.36) rotate(64.86)"><tspan x="0" y="0">C</tspan></text>
    <text class="cls-6" transform="translate(256.69 92.57) rotate(73.48)"><tspan x="0" y="0">A</tspan></text>
    <text class="cls-6" transform="translate(260.56 106.44) rotate(81.3)"><tspan x="0" y="0">T</tspan></text>
    <text class="cls-6" transform="translate(262.5 121.77) rotate(89.07)"><tspan x="0" y="0">E</tspan></text>
    <g>
      <polygon class="cls-10" points="56.13 158.76 57.06 163.66 62.07 164.39 57.64 166.74 58.55 171.7 54.85 168.21 50.37 170.5 52.57 165.94 48.86 162.49 53.92 163.24 56.13 158.76"/>
      <polygon class="cls-10" points="65.54 181.51 66.56 185.84 70.92 186.25 67.2 188.55 68.2 192.92 64.85 190 61.08 192.26 62.78 188.09 59.42 185.19 63.83 185.62 65.54 181.51"/>
      <polygon class="cls-10" points="81.26 201.84 82.15 205.61 85.95 205.96 82.71 207.98 83.58 211.78 80.66 209.24 77.37 211.2 78.86 207.57 75.93 205.05 79.78 205.42 81.26 201.84"/>
    </g>
    <text/>
    <circle class="cls-10" cx="158" cy="126.72" r="98.28"/>
    <path class="cls-9" d="m243.03,247.48c-6.7-.65-13.57-1.24-20.62-1.75-9.95-.72-20.23-1.3-30.83-1.68-11.8-.43-23.22-.6-34.21-.55-13.44-.02-27.61.27-42.45,1-6.52.32-33.86,2.3-40.9,2.99v-25.93c25.12-2.98,54.17-5.07,86.44-4.99,30.69.08,58.42,2.12,82.58,4.99v25.93Z"/>
    <polygon class="cls-9" points="272.35 233.93 261.16 244.73 272.35 258.36 226.69 253.6 226.69 248.28 245.99 250 245.99 230.62 272.35 233.93"/>
    <polygon class="cls-9" points="89.62 248.56 71.1 250.18 71.1 230.67 44.18 234.22 55.32 244.86 44.18 258.31 89.62 253.73 89.62 248.56"/>
    <line class="cls-13" x1="232.24" y1="234.05" x2="238.29" y2="235.01"/>
    <line class="cls-13" x1="80.94" y1="235.49" x2="87" y2="234.53"/>
    <text class="cls-3" transform="translate(92.61 235.27) rotate(-6.12)"><tspan x="0" y="0">N</tspan></text>
    <text class="cls-3" transform="translate(100.67 234.43) rotate(-5.35)"><tspan x="0" y="0">U</tspan></text>
    <text class="cls-3" transform="translate(108.24 233.73) rotate(-4.59)"><tspan x="0" y="0">R</tspan></text>
    <text class="cls-3" transform="translate(115.22 233.18) rotate(-3.93)"><tspan x="0" y="0">T</tspan></text>
    <text class="cls-3" transform="translate(122.46 232.69) rotate(-3.2)"><tspan x="0" y="0">U</tspan></text>
    <text class="cls-3" transform="translate(130.06 232.28) rotate(-2.45)"><tspan x="0" y="0">R</tspan></text>
    <text class="cls-3" transform="translate(137.82 231.96) rotate(-1.84)"><tspan x="0" y="0">I</tspan></text>
    <text class="cls-3" transform="translate(142.58 231.81) rotate(-1.21)"><tspan x="0" y="0">N</tspan></text>
    <text class="cls-3" transform="translate(150.67 231.66) rotate(-.45)"><tspan x="0" y="0">G</tspan></text>
    <text class="cls-3" transform="translate(158.03 231.62) rotate(.09)"><tspan x="0" y="0"> </tspan></text>
    <text class="cls-3" transform="translate(161.87 231.63) rotate(.59)"><tspan x="0" y="0">E</tspan></text>
    <text class="cls-3" transform="translate(168.19 231.7) rotate(1.28)"><tspan x="0" y="0">X</tspan></text>
    <text class="cls-3" transform="translate(175.55 231.87) rotate(1.98)"><tspan x="0" y="0">C</tspan></text>
    <text class="cls-3" transform="translate(182.85 232.14) rotate(2.65)"><tspan x="0" y="0">E</tspan></text>
    <text class="cls-3" transform="translate(189.17 232.44) rotate(3.27)"><tspan x="0" y="0">L</tspan></text>
    <text class="cls-3" transform="translate(195.57 232.82) rotate(3.9)"><tspan x="0" y="0">L</tspan></text>
    <text class="cls-3" transform="translate(201.93 233.26) rotate(4.52)"><tspan x="0" y="0">E</tspan></text>
    <text class="cls-3" transform="translate(208.21 233.77) rotate(5.22)"><tspan x="0" y="0">N</tspan></text>
    <text class="cls-3" transform="translate(216.29 234.52) rotate(5.98)"><tspan x="0" y="0">C</tspan></text>
    <text class="cls-3" transform="translate(223.58 235.3) rotate(6.65)"><tspan x="0" y="0">E</tspan></text>
    <path class="cls-12" d="m160.32,210.31s-.04-9.39,27.58-20.57c38.23-15.48,42.97-25.1,44.11-35.15,1.14-10.05-6.8-19.31-8.05-33.44-1.24-14.13,9.34-34.63,9.34-34.63l-19.1-30.79c-37.11,8.34-54.56-4.98-54.56-4.98,0,0-17.33,13.46-54.51,5.44l-18.84,30.95s10.76,20.41,9.63,34.55c-1.13,14.14-8.99,23.47-7.76,33.51,1.23,10.04,6.04,19.62,44.41,34.77,27.71,10.95,27.75,20.34,27.75,20.34Z"/>
    <text class="cls-2" transform="translate(121.02 81.84) rotate(-.08) scale(1.19 1) skewX(-.13)"><tspan class="cls-34" x="0" y="0">M</tspan><tspan class="cls-17" x="13.45" y="0">Y</tspan><tspan class="cls-21" x="22.36" y="0">S</tspan><tspan class="cls-23" x="31.28" y="0">O</tspan><tspan class="cls-21" x="44.4" y="0">RE</tspan></text>
    <text class="cls-5" transform="translate(100.52 100.43) rotate(-.1) scale(.91 1) skewX(-.17)"><tspan class="cls-1" x="0" y="0">INTER</tspan><tspan class="cls-30" x="32.94" y="0">N</tspan><tspan class="cls-28" x="40.77" y="0">A</tspan><tspan class="cls-1" x="47.23" y="0">TIO</tspan><tspan class="cls-30" x="66.11" y="0">NA</tspan><tspan class="cls-15" x="81.05" y="0">L SCH</tspan><tspan class="cls-20" x="110.81" y="0">O</tspan><tspan class="cls-1" x="118.52" y="0">OL</tspan></text>
    <line class="cls-7" x1="115.26" y1="88.3" x2="202.29" y2="88.32"/>
    <path class="cls-8" d="m160.02,148.03s1.29-5.65,10.5-2.69c9.21,2.95,7.67,2.43,7.67,2.43l.1.73h-18.26v-.47Z"/>
    <path class="cls-8" d="m178.1,148.83c1.18-.09,2.38-.97,2.4-2.28,0-.54-.33-1.11-.52-1.6l-3.11-8.06-1.27-3.3c-.08-.21-.14-.45-.25-.65-.37-.68-1.23-.97-1.92-1.28-2.81-1.26-6.71-1.38-9.2.73-.03.03-.27.17-.26.21-.05-.56.57.04.29-.16-.2-.14-.99,0-1.24,0h-4.32c-1.24,0-2.54-.12-3.77,0-.71.07-.05-.04-.04.13-.01-.17-.84-.59-.97-.67-1.29-.74-2.78-1.14-4.27-1.16-1.04-.01-2.1.17-3.09.49-.89.29-2.45.77-2.97,1.59-.31.49-.46,1.18-.66,1.71l-1.47,3.79-1.89,4.89c-.36.94-.87,1.91-1.11,2.88-.22.85.28,1.84,1,2.34,1.03.71,2.73.37,3.91.35.8-.01.81-1.26,0-1.25-.87.02-2.17.31-2.99-.02-.39-.16-.51-.44-.68-.78-.11-.23-.03-.51-.1-.13.03-.16.13-.33.19-.48l2.44-6.32,1.43-3.7c.3-.79.53-1.74.95-2.47.06-.1.07-.31.15-.39-.17.17.57-.12.53-.11.35-.11.69-.35,1.03-.48.59-.24,1.21-.42,1.84-.53,1.62-.29,3.34-.05,4.81.7.5.26.99.76,1.54.88.65.14,1.47,0,2.13,0,2.42,0,4.84.02,7.26,0,.45,0,.68-.05,1.07-.3.97-.63,1.97-1.1,3.12-1.3.99-.17,2.01-.12,2.98.09.5.11,1,.27,1.48.46.34.14.68.37,1.03.48-.02,0,.7.28.53.11.3.3.45,1.16.6,1.55l3.11,8.04,1.21,3.14c.08.2.19.41.24.62-.07-.32.03-.11-.1.14-.25.49-.46.8-1.08.85-.8.06-.8,1.31,0,1.25h0Z"/>
    <g>
      <path class="cls-8" d="m165.93,110.28c-.11-.93-.62-1.84-1.26-2.62.34,1.14.06,2.67-1.11,3.47-.7.47-1.57.79-2.41,1.06-.48.15-2.2.7-2.36,2.09,0,.06-.04.11-.05.17-.17-.63-.02-1.32.42-1.87.56-.7,1.52-1.12,2.42-1.55.89-.43,1.9-.91,2.21-1.71.73-1.93-.67-3.38-.97-3.67.13,1.01-.29,2.05-1.13,2.81-.91.82-2.28,1.13-3.29,1.85-2.14,1.52-2.08,4.03-.49,5.8.52.58,1.23,1.12,1.89,1.54-.12-1.16.65-2.1,1.82-2.72.7-.37,1.47-.65,2.15-1.04,1.44-.83,2.34-2.16,2.17-3.6Z"/>
      <path class="cls-8" d="m154,118.23h12.1v.75c0,.92-.75,1.67-1.67,1.67h-8.76c-.92,0-1.67-.75-1.67-1.67v-.75h0Z"/>
      <path class="cls-8" d="m155.73,121.2h8.64v.75c0,.92-.75,1.67-1.67,1.67h-5.3c-.92,0-1.67-.75-1.67-1.67v-.75h0Z"/>
      <polygon class="cls-8" points="161.65 139.96 158.45 139.96 157.28 124.24 162.82 124.24 161.65 139.96"/>
    </g>
    <line class="cls-16" x1="160.05" y1="139.78" x2="160.05" y2="148.5"/>
    <g>
      <path class="cls-14" d="m161.77,197.41c1.94-2.35,5.68-5.54,12.88-9.14h-12.88v9.14Z"/>
      <path class="cls-14" d="m157.33,197.09v-8.83h-12.62c6.89,3.44,10.61,6.52,12.62,8.83Z"/>
      <path class="cls-14" d="m145.09,168.53h12.24v-10.25c-2.75,1.73-7.88,5.29-12.24,10.25Z"/>
      <path class="cls-14" d="m161.77,158.62v9.92h11.72c-4.1-4.66-8.87-8.09-11.72-9.92Z"/>
      <path class="cls-14" d="m175.69,171.27h-13.93v14.25h18.9c.16-.07.32-.13.48-.2-.02-.35-.04-.69-.08-1.04-.48-4.87-2.61-9.26-5.37-13.01Z"/>
      <path class="cls-14" d="m137.45,185.01c.42.17.84.34,1.25.51h18.63v-14.25h-14.45c-2.76,3.76-4.9,8.14-5.38,13.01-.02.24-.04.48-.05.72Z"/>
      <path class="cls-14" d="m133.16,183.34c.59-4.47,2.42-8.52,4.82-12.06h-20.55c-1.2,1.18-2.26,2.41-3.18,3.69,4.9,2.57,11.09,5.34,18.92,8.38Z"/>
      <path class="cls-14" d="m180.59,171.27c2.45,3.62,4.3,7.77,4.85,12.36,6.79-2.61,12.37-5.03,16.97-7.3-1.11-1.78-2.49-3.47-4.11-5.06h-17.71Z"/>
      <path class="cls-14" d="m178.56,168.53h16.59c-6.96-5.38-16.9-9.22-28.26-10.57,3.36,2.31,7.9,5.91,11.67,10.57Z"/>
      <path class="cls-14" d="m140.01,168.53c3.95-4.88,7.62-8.28,11.01-10.57-12.73.94-22.81,4.68-30.44,10.57h19.43Z"/>
    </g>
    <g>
      <path class="cls-8" d="m155.07,164.94s-24.27-6.2-26.35-27.02c0,0,9.57,14.58,17.61,16.35,0,0,1.46-.73-.62-3.54,0,0-7.42-2.4-7.07-7.03,0,0,6.03,3.96,9.22,4.48,0,0,7.07,2.81,7.91,10.57l-.28,6.2h-.42Z"/>
      <path class="cls-8" d="m163.79,164.94s24.27-6.2,26.35-27.02c0,0-9.57,14.58-17.61,16.35,0,0-1.46-.73.62-3.54,0,0,7.42-2.4,7.07-7.03,0,0-6.03,3.96-9.22,4.48,0,0-7.07,2.81-7.91,10.57l.28,6.2h.42Z"/>
    </g>
    <g>
      <polygon class="cls-10" points="260.8 159.01 259.87 163.91 254.86 164.64 259.29 166.99 258.38 171.95 262.08 168.47 266.56 170.75 264.36 166.2 268.07 162.74 263.01 163.5 260.8 159.01"/>
      <polygon class="cls-10" points="251.39 181.77 250.37 186.09 246.01 186.5 249.73 188.81 248.73 193.18 252.08 190.26 255.85 192.51 254.15 188.34 257.51 185.44 253.1 185.87 251.39 181.77"/>
      <polygon class="cls-10" points="235.67 202.1 234.78 205.86 230.98 206.22 234.22 208.23 233.35 212.04 236.27 209.49 239.56 211.45 238.07 207.82 241 205.3 237.15 205.67 235.67 202.1"/>
    </g>
    <polygon class="cls-8" points="178.19 147.77 178.56 148.14 178.28 148.41 178.19 147.77"/>
    <path class="cls-8" d="m160.05,148.03s-1.29-5.65-10.5-2.69c-9.21,2.95-7.67,2.43-7.67,2.43l-.1.73h18.26v-.47Z"/>
  </g>
</svg>